<?xml version="1.0" encoding="utf-8"?>
<!-- Generator: Adobe Illustrator 24.1.0, SVG Export Plug-In . SVG Version: 6.00 Build 0)  -->
<svg version="1.1" id="Layer_1" xmlns="http://www.w3.org/2000/svg" xmlns:xlink="http://www.w3.org/1999/xlink" x="0px" y="0px"
	 viewBox="0 0 1100 1100" style="enable-background:new 0 0 1100 1100;" xml:space="preserve">
<style type="text/css">
	.st0{fill:#FFFFFF;}
</style>
<circle cx="550" cy="550" r="500"/>
<g>
	<g>
		<path class="st0" d="M767.2,259.8h-54.4v108.7L672,354.9l-40.8,13.6V259.8H318.6v570.9h448.5c7.5,0,13.6-5.8,13.6-12.9v-545
			C780.7,265.6,774.6,259.8,767.2,259.8z M400.2,783.1c0,3.8-3,6.8-6.8,6.8h-27.2c-3.8,0-6.8-3-6.8-6.8V307.4c0-3.8,3-6.8,6.8-6.8
			h27.2c3.8,0,6.8,3,6.8,6.8V783.1z M665.2,572.4H488.5c-11.3,0-20.4-9.1-20.4-20.4s9.1-20.4,20.4-20.4h176.7
			c11.3,0,20.4,9.1,20.4,20.4S676.5,572.4,665.2,572.4z M665.2,490.9H488.5c-11.3,0-20.4-9.1-20.4-20.4c0-11.3,9.1-20.4,20.4-20.4
			h176.7c11.3,0,20.4,9.1,20.4,20.4C685.6,481.7,676.5,490.9,665.2,490.9z"/>
	</g>
</g>
</svg>
