<?xml version="1.0" encoding="utf-8"?>
<!-- Generator: Adobe Illustrator 24.1.0, SVG Export Plug-In . SVG Version: 6.00 Build 0)  -->
<svg version="1.1" id="Layer_1" xmlns="http://www.w3.org/2000/svg" xmlns:xlink="http://www.w3.org/1999/xlink" x="0px" y="0px"
	 viewBox="0 0 1100 1100" style="enable-background:new 0 0 1100 1100;" xml:space="preserve">
<style type="text/css">
	.st0{fill:#FFFFFF;}
</style>
<circle cx="549.6" cy="550" r="500"/>
<g>
	<g>
		<g>
			<path class="st0" d="M726.7,813.5H577.2V310.6h140L653,473c-5.3,13.4,4.6,27.8,18.9,27.8c8.4,0,15.9-5.1,18.9-12.9l56.2-142.3
				L803.3,488c3.1,7.8,10.6,12.9,18.9,12.9c14.4,0,24.2-14.5,18.9-27.8L766,282.7c-3-7.7-10.5-12.9-18.9-12.9H577.2v-27.2
				c0-15-12.2-27.2-27.2-27.2s-27.2,12.2-27.2,27.2v27.2H352.9c-8.4,0-15.9,5.2-18.9,12.9L258.8,473c-5.3,13.4,4.6,27.8,18.9,27.8
				c8.4,0,15.9-5.1,18.9-12.9l56.2-142.3L409.1,488c3.1,7.8,10.6,12.9,18.9,12.9c14.4,0,24.2-14.5,18.9-27.8l-64.2-162.5h140v502.9
				H373.3c-15,0-27.2,12.2-27.2,27.2s12.2,27.2,27.2,27.2h353.4c15,0,27.2-12.2,27.2-27.2S741.7,813.5,726.7,813.5z"/>
			<path class="st0" d="M481.1,545.9c0.5-2.1-1.2-4.2-3.4-4.2H228.1c-2.2,0-3.9,2.1-3.4,4.2c13.8,58,65.9,101.2,128.2,101.2
				C415,647,467.3,603.8,481.1,545.9z"/>
			<path class="st0" d="M871.9,541.6H622.3c-2.2,0-3.9,2.1-3.4,4.2c13.8,58,65.9,101.2,128.2,101.2c62.1,0,114.3-43.2,128.2-101.2
				C875.8,543.7,874.1,541.6,871.9,541.6z"/>
		</g>
	</g>
</g>
</svg>
